<?xml version="1.0" encoding="UTF-8" standalone="no"?>
<!DOCTYPE svg PUBLIC "-//W3C//DTD SVG 1.1//EN" "http://www.w3.org/Graphics/SVG/1.1/DTD/svg11.dtd">
<svg width="100%" height="100%" viewBox="0 0 256 256" version="1.1" xmlns="http://www.w3.org/2000/svg" xmlns:xlink="http://www.w3.org/1999/xlink" xml:space="preserve" xmlns:serif="http://www.serif.com/" style="fill-rule:evenodd;clip-rule:evenodd;stroke-linejoin:round;stroke-miterlimit:2;">
    <rect id="Artboard1" x="0" y="0" width="256" height="256" style="fill:none;"/>
    <g id="Artboard11" serif:id="Artboard1">
        <g transform="matrix(-5.29917,5.29917,-5.29917,-5.29917,679.888,-158.32)">
            <path d="M79.44,27.088C83.619,19.634 83.472,12.18 79.44,4.727L90.692,15.907L79.44,27.088Z" style="fill:rgb(0,56,145);fill-rule:nonzero;"/>
        </g>
        <g transform="matrix(1.11951,0,0,1.11951,-52.5471,-45.6545)">
            <path d="M98.959,200.175C98.959,200.175 73.27,205.225 69.592,197.24C63.685,184.418 60.391,170.149 60.391,155.117C60.391,99.438 105.595,54.234 161.274,54.234C216.953,54.234 262.157,99.438 262.157,155.117C262.157,183.697 249.843,211.332 230.72,229.695C217.824,226.378 204.84,213.236 205.702,213.021C215.172,209.169 218.792,206.809 223.589,200.175L212.855,182.971C214.759,179.445 216.296,175.734 217.443,171.894L237.198,167.319C238.497,159.236 238.497,150.998 237.198,142.914L217.443,138.34C216.296,134.5 214.759,130.788 212.855,127.263L223.589,110.059C218.792,103.424 212.966,97.599 206.332,92.802L189.128,103.536C185.602,101.632 181.89,100.094 178.051,98.948L173.476,79.192C165.393,77.893 157.154,77.893 149.071,79.192L144.496,98.948C140.657,100.094 136.945,101.632 133.419,103.536L116.215,92.802C109.581,97.599 103.756,103.424 98.959,110.059L109.693,127.263C107.789,130.788 106.251,134.5 105.104,138.34L85.349,142.914C84.05,150.998 84.05,159.236 85.349,167.319L105.104,171.894C106.251,175.734 107.789,179.445 109.693,182.971L98.959,200.175Z" style="fill:rgb(0,56,145);"/>
        </g>
    </g>
</svg>
